<?xml version="1.0" encoding="UTF-8"?><svg id="a" xmlns="http://www.w3.org/2000/svg" viewBox="0 0 72 474.19"><defs><style>.b{isolation:isolate;}</style></defs><g class="b"><path d="M49.54,396.57v56.09l10.94,10.01v8.64h-.5l-48.46-44.36v-4.75l48.46-44.36h.5v8.64l-10.94,10.08Zm-5.62,50.91v-45.8l-15.19,13.97c-4.82,4.46-9.29,8.28-10.01,8.86v.14s5.18,4.46,10.01,8.86l15.19,13.97Z"/><path d="M34.7,297.78c2.02-5.9,6.48-8.64,11.52-8.64,9.36,0,14.26,5.98,14.26,20.09v58.54H11.52v-57.97c0-14.4,6.41-18.72,12.96-18.72,5.4,0,8.64,3.1,10.01,6.7h.22Zm-2.45,9.79c0-4.68-1.73-9.22-7.27-9.22-4.25,0-7.85,2.81-7.85,12.31v49.9h15.12v-53Zm5.62,53h16.99v-51.05c0-9.65-3.1-13.03-8.5-13.03s-8.5,4.18-8.5,12.02v52.06Z"/><path d="M54.58,266.9c-3.82,6.34-9.15,10.01-18.58,10.01s-14.91-3.96-18.58-10.01c-4.03-6.7-6.91-18.43-6.91-34.49s2.88-27.79,6.91-34.49c3.67-6.05,9.36-10.01,18.58-10.01s14.76,3.67,18.58,10.01c4.03,6.7,6.91,18.22,6.91,34.49s-2.88,27.79-6.91,34.49Zm-4.39-63.73c-2.95-5.04-7.27-7.92-14.19-7.92s-11.09,2.67-14.11,7.78c-3.17,5.4-5.33,15.77-5.33,29.38s2.16,23.98,5.33,29.38c3.02,5.11,7.49,7.78,14.11,7.78s11.23-2.88,14.19-7.92c3.17-5.47,5.26-15.99,5.26-29.24s-2.09-23.76-5.26-29.23Z"/><path d="M11.52,167.76h28.51c9.22,0,15.41-12.6,15.41-33.55s-6.19-33.55-15.41-33.55H11.52v-7.2h29.09c11.02,0,20.88,12.75,20.88,40.76s-9.87,40.76-20.88,40.76H11.52v-7.2Z"/><path d="M17.56,83.38h-6.05V2.87h6.05V39.52H60.48v7.2H17.56v36.65Z"/></g></svg>