<?xml version="1.0" encoding="UTF-8"?><svg id="a" xmlns="http://www.w3.org/2000/svg" viewBox="0 0 72 628.06"><path d="M16.34,539.7l5.69,1.37c-2.23,8.06-5.47,22.83-5.47,37.51s2.52,23.76,5.83,28.88c3.17,4.82,7.63,7.49,14.4,7.49s11.38-2.88,13.97-7.63c2.95-5.33,4.68-15.34,4.68-29.74,0-13.46-3.38-28.95-5.9-37.23l5.9-1.3c2.59,7.85,6.05,23.47,6.05,38.52,0,17.64-1.8,27.15-6.05,34.71-3.46,6.12-10.15,10.01-18.65,10.01-9.07,0-14.98-3.82-19.01-10.01-4.18-6.34-7.27-16.85-7.27-33.7s3.24-31.25,5.76-38.88h.07Z"/><path d="M54.58,519.69c-3.82,6.34-9.15,10.01-18.58,10.01s-14.91-3.96-18.58-10.01c-4.03-6.7-6.91-18.43-6.91-34.49s2.88-27.79,6.91-34.49c3.67-6.05,9.36-10.01,18.58-10.01s14.76,3.67,18.58,10.01c4.03,6.7,6.91,18.22,6.91,34.49s-2.88,27.79-6.91,34.49Zm-4.39-63.73c-2.95-5.04-7.27-7.92-14.19-7.92s-11.09,2.67-14.11,7.78c-3.17,5.4-5.33,15.77-5.33,29.38s2.16,23.98,5.33,29.38c3.02,5.11,7.49,7.78,14.11,7.78s11.23-2.88,14.19-7.92c3.17-5.47,5.26-15.99,5.26-29.24s-2.09-23.76-5.26-29.23Z"/><path d="M19.87,420.33v.22H60.48v7.2H11.52v-5.91c13.68-22.68,27.07-45.36,40.61-68.12v-.22H11.52v-7.2H60.48v5.9c-13.54,22.75-27,45.36-40.61,68.12Z"/><path d="M17.56,336.24h-6.05v-80.5h6.05v36.65H60.48v7.2H17.56v36.65Z"/><path d="M49.54,196.84v56.09l10.94,10.01v8.64h-.5L11.52,227.23v-4.75l48.46-44.36h.5v8.64l-10.94,10.08Zm-5.62,50.91v-45.8l-15.19,13.97c-4.82,4.46-9.29,8.28-10.01,8.86v.14s5.18,4.46,10.01,8.86l15.19,13.97Z"/><path d="M16.34,92.66l5.69,1.37c-2.23,8.06-5.47,22.83-5.47,37.51s2.52,23.76,5.83,28.88c3.17,4.82,7.63,7.49,14.4,7.49s11.38-2.88,13.97-7.63c2.95-5.33,4.68-15.34,4.68-29.74,0-13.46-3.38-28.95-5.9-37.23l5.9-1.3c2.59,7.85,6.05,23.47,6.05,38.52,0,17.64-1.8,27.15-6.05,34.71-3.46,6.12-10.15,10.01-18.65,10.01-9.07,0-14.98-3.82-19.01-10.01-4.18-6.34-7.27-16.85-7.27-33.7s3.24-31.25,5.76-38.88h.07Z"/><path d="M17.56,83.38h-6.05V2.87h6.05V39.52H60.48v7.2H17.56v36.65Z"/></svg>