<?xml version="1.0" encoding="UTF-8"?><svg id="a" xmlns="http://www.w3.org/2000/svg" viewBox="0 0 72 823.89"><defs><style>.b{isolation:isolate;}</style></defs><g class="b"><path d="M38.09,809.49h16.35v-69.34h6.05v76.54H11.52v-76.11h6.05v68.91h14.91v-66.03h5.62v66.03Z"/><path d="M35.71,676.14h.14l24.19-40.25h.43v12.17l-20.88,34.49v.14l20.88,34.49v12.17h-.43l-24.19-40.25h-.14l-23.69,39.46h-.5v-12.1l20.45-33.77v-.14l-20.45-33.77v-12.1h.5l23.69,39.46Z"/><path d="M60.48,542.94v7.2h-20.31v67.04h20.31v7.2H11.52v-7.2h22.61v-67.04H11.52v-7.2H60.48Z"/><path d="M60.48,516.67v7.2H11.52v-7.2H60.48Z"/><path d="M34.7,427.6c2.02-5.9,6.48-8.64,11.52-8.64,9.36,0,14.26,5.98,14.26,20.09v58.54H11.52v-57.97c0-14.4,6.41-18.72,12.96-18.72,5.4,0,8.64,3.1,10.01,6.7h.22Zm-2.45,9.79c0-4.68-1.73-9.22-7.27-9.22-4.25,0-7.85,2.81-7.85,12.31v49.9h15.12v-53Zm5.62,53h16.99v-51.05c0-9.65-3.1-13.03-8.5-13.03s-8.5,4.18-8.5,12.02v52.06Z"/><path d="M60.48,393.4v7.2H11.52v-7.2H60.48Z"/><path d="M17.56,378.65h-6.05v-80.5h6.05v36.65H60.48v7.2H17.56v36.65Z"/><path d="M60.48,276.19v7.2H11.52v-7.2H60.48Z"/><path d="M54.58,248.54c-3.82,6.34-9.15,10.01-18.58,10.01s-14.91-3.96-18.58-10.01c-4.03-6.7-6.91-18.43-6.91-34.49s2.88-27.79,6.91-34.49c3.67-6.05,9.36-10.01,18.58-10.01s14.76,3.67,18.58,10.01c4.03,6.7,6.91,18.22,6.91,34.49s-2.88,27.79-6.91,34.49Zm-4.39-63.73c-2.95-5.04-7.27-7.92-14.19-7.92s-11.09,2.67-14.11,7.78c-3.17,5.4-5.33,15.77-5.33,29.38s2.16,23.98,5.33,29.38c3.02,5.11,7.49,7.78,14.11,7.78s11.23-2.88,14.19-7.92c3.17-5.47,5.26-15.99,5.26-29.24s-2.09-23.76-5.26-29.23Z"/><path d="M19.87,149.18v.22H60.48v7.2H11.52v-5.91c13.68-22.68,27.07-45.36,40.61-68.12v-.22H11.52v-7.2H60.48v5.9c-13.54,22.75-27,45.36-40.61,68.12Z"/><path d="M53.28,60.55c.94-4.9,2.59-15.7,2.59-27.07,0-8.86-.5-14.26-1.73-17.5-1.15-3.02-2.81-4.18-5.76-4.18-2.74,0-4.32,1.51-4.75,6.19-.36,3.67-.43,8.93-.43,15.84,0,13.83-.22,20.09-1.87,23.91-1.44,3.31-4.25,5.18-7.99,5.18-4.25,0-7.92-2.09-9.94-7.71-1.37-3.89-2.52-10.08-2.52-21.31,0-13.97,2.09-24.99,2.09-24.99l5.54,.94s-2.02,11.88-2.02,24.05c0,9.43,.94,15.77,1.87,18.43,1.01,2.81,2.66,3.82,4.82,3.82,2.02,0,3.38-1.08,4.03-3.24,.79-2.59,.79-7.27,.79-19.08,0-10.44,0-16.2,.94-20.52,1.3-6.05,4.9-8.28,9.43-8.28s7.7,1.66,9.72,5.4c2.45,4.54,3.38,14.98,3.38,23.04,0,13.18-1.66,23.4-2.67,27.79l-5.54-.72Z"/></g></svg>