<?xml version="1.0" encoding="UTF-8"?><svg id="a" xmlns="http://www.w3.org/2000/svg" viewBox="0 0 72 388.94"><path d="M60.48,300.3v7.2h-20.31v67.04h20.31v7.2H11.52v-7.2h22.61v-67.04H11.52v-7.2H60.48Z"/><path d="M54.58,277.34c-3.82,6.34-9.15,10.01-18.58,10.01s-14.91-3.96-18.58-10.01c-4.03-6.7-6.91-18.43-6.91-34.49s2.88-27.79,6.91-34.49c3.67-6.05,9.36-10.01,18.58-10.01s14.76,3.67,18.58,10.01c4.03,6.7,6.91,18.22,6.91,34.49s-2.88,27.79-6.91,34.49Zm-4.39-63.73c-2.95-5.04-7.27-7.92-14.19-7.92s-11.09,2.67-14.11,7.78c-3.17,5.4-5.33,15.77-5.33,29.38s2.16,23.98,5.33,29.38c3.02,5.11,7.49,7.78,14.11,7.78s11.23-2.88,14.19-7.92c3.17-5.47,5.26-15.99,5.26-29.24s-2.09-23.76-5.26-29.23Z"/><path d="M20.8,104.61v.14l34.42,36.44v.43l-34.42,36.44v.14H60.48v7.2H11.52v-6.12l35.57-37.8v-.14L11.52,103.67v-6.26H60.48v7.2H20.8Z"/><path d="M38.09,75.81h16.35V6.47h6.05V83.02H11.52V6.9h6.05V75.81h14.91V9.79h5.62V75.81Z"/></svg>