<?xml version="1.0" encoding="UTF-8"?><svg id="a" xmlns="http://www.w3.org/2000/svg" viewBox="0 0 612.43 222.3"><path d="M17.46,15.26L59.92,49.13h.19L102.57,15.26h13.64v.67l-51.43,40.93v23.28h-9.54v-23.28L3.82,15.93v-.67h13.64Z"/><path d="M139.11,15.26V53.05c0,12.21,16.7,20.42,44.46,20.42s44.46-8.21,44.46-20.42V15.26h9.54V53.81c0,14.6-16.89,27.67-54,27.67s-54-13.07-54-27.67V15.26h9.54Z"/><path d="M331.93,57.72v.29s3.05,2.1,6.01,4.2l23.57,17.37v.57h-12.98l-30.25-22.33h-52.1v22.33h-9.54V15.26h70.42c24.62,0,32.82,7.54,32.82,21.75,0,12.31-6.68,19.66-27.96,20.71Zm-65.74-7.35h60.11c19.56,0,23.85-4.87,23.85-13.36s-4.58-13.74-24.81-13.74h-59.16v27.1Z"/><path d="M471.99,65.64h-74.33l-13.26,14.5h-11.45v-.67L431.73,15.26h6.3l58.77,64.21v.67h-11.45l-13.36-14.5Zm-67.46-7.44h60.68l-18.51-20.13c-5.92-6.39-10.97-12.31-11.74-13.26h-.19s-5.92,6.87-11.74,13.26l-18.51,20.13Z"/><path d="M3.82,184.62c9.54,1.72,25.38,3.34,36.83,3.34,18.03,0,30.63-2.86,36.73-5.72,7.63-3.53,10.3-8.78,10.3-19.75v-32.73h9.54v33.11c0,13.93-3.53,20.8-13.45,26.05-7.63,4.01-21.66,7.06-43.41,7.06-12.12,0-27.67-1.43-36.54-3.34v-8.02Z"/><path d="M125.85,164.96v21.66h91.88v8.02H116.3v-64.88h100.85v8.01H125.85v19.75h87.49v7.44H125.85Z"/><path d="M243.39,186.81c-8.4-5.06-13.26-12.12-13.26-24.62s5.25-19.75,13.26-24.62c8.87-5.34,24.43-9.16,45.7-9.16s36.83,3.82,45.7,9.16c8.01,4.87,13.26,12.4,13.26,24.62s-4.87,19.56-13.26,24.62c-8.87,5.34-24.14,9.16-45.7,9.16s-36.83-3.82-45.7-9.16Zm84.44-5.82c6.68-3.91,10.5-9.64,10.5-18.8s-3.53-14.69-10.3-18.7c-7.16-4.2-20.9-7.06-38.93-7.06s-31.77,2.86-38.93,7.06c-6.77,4.01-10.3,9.92-10.3,18.7s3.82,14.88,10.5,18.8c7.25,4.2,21.18,6.96,38.74,6.96s31.49-2.77,38.74-6.96Z"/><path d="M375.06,140.82h-.29v53.81h-9.54v-64.88h7.82c30.06,18.13,60.11,35.88,90.26,53.81h.29v-53.81h9.54v64.88h-7.82c-30.15-17.94-60.11-35.78-90.26-53.81Z"/><path d="M600.13,142.25c-16.22-3.43-32.54-5.82-49.81-5.82-21.37,.29-34.16,3.24-41.5,8.49-6.49,4.68-8.78,10.88-8.78,18.41,0,8.4,4.01,15.27,10.4,18.61,7.82,4.1,19.08,6.01,39.88,6.01,17.65,0,34.35-2.96,43.99-5.72v-15.46h-64.5v-7.44h74.04v28.53c-10.78,3.44-31.2,8.11-53.53,8.11-23.95,0-37.21-2.67-46.28-7.63-8.3-4.58-13.74-13.26-13.74-25s4.48-19.18,12.59-24.62c8.4-5.72,25.09-10.3,47.42-10.3s41.22,3.43,51.71,6.11l-1.91,7.73Z"/></svg>