<?xml version="1.0" encoding="UTF-8"?><svg id="a" xmlns="http://www.w3.org/2000/svg" viewBox="0 0 72 521.42"><defs><style>.b{isolation:isolate;}</style></defs><g class="b"><path d="M30.17,449.13l30.53,25.99v1.08l-48.6,42.34h-.58v-9.07l39.1-34.06v-.14l-30.17-25.71v-.94l30.17-25.78v-.14l-39.1-34.06v-9.07h.58l48.6,42.34v1.08l-30.53,25.99v.14Z"/><path d="M54.58,365.97c-3.82,6.34-9.15,10.01-18.58,10.01s-14.91-3.96-18.58-10.01c-4.03-6.7-6.91-18.43-6.91-34.49s2.88-27.79,6.91-34.49c3.67-6.05,9.36-10.01,18.58-10.01s14.76,3.67,18.58,10.01c4.03,6.7,6.91,18.22,6.91,34.49s-2.88,27.79-6.91,34.49Zm-4.39-63.73c-2.95-5.04-7.27-7.92-14.19-7.92s-11.09,2.67-14.11,7.78c-3.17,5.4-5.33,15.77-5.33,29.38s2.16,23.98,5.33,29.38c3.02,5.11,7.49,7.78,14.11,7.78s11.23-2.88,14.19-7.92c3.17-5.47,5.26-15.99,5.26-29.24s-2.09-23.76-5.26-29.23Z"/><path d="M43.56,217.22h.21s1.58-2.3,3.17-4.54l13.1-17.79h.43v9.79l-16.85,22.83v39.32h16.85v7.2H11.52v-53.14c0-18.58,5.69-24.77,16.42-24.77,9.29,0,14.83,5.04,15.63,21.1Zm-5.54,49.61v-45.36c0-14.76-3.67-18-10.08-18s-10.37,3.46-10.37,18.72v44.64h20.45Z"/><path d="M12.67,99.78l22.47,56.38h.22l23.98-58.54h1.15v12.82l-22.32,54.37v9.94h22.32v7.2H11.52v-7.2h21.03v-9.86L11.52,112.17v-12.38h1.15Z"/><path d="M38.09,46.79c0,18.94-.79,31.25-2.45,36.22-1.58,4.75-5.18,6.7-9.79,6.7-5.47,0-9.07-2.74-11.23-8.35-2.23-5.76-4.1-16.13-4.1-31.97,0-14.91,1.94-31.18,3.53-38.88l5.54,1.01c-1.73,9.14-3.46,23.76-3.46,37.88s1.3,23.33,3.02,28.01c1.44,3.96,3.38,4.97,6.41,4.97,2.66,0,4.61-1.22,5.54-4.54,1.08-3.82,1.37-13.97,1.37-28.15,0-12.67,.07-26.86,1.87-34.49,1.58-6.84,5.83-9.43,11.16-9.43,6.05,0,9.29,2.38,11.59,6.98,3.1,6.34,4.39,19.8,4.39,33.41,0,18.51-2.09,34.49-3.89,42.12l-5.69-.94c1.58-8.42,3.96-23.83,3.96-41.19,0-13.32-.86-22.75-3.17-28.3-1.51-3.6-3.89-4.75-7.2-4.75-3.02,0-5.33,1.37-6.34,6.41-.86,4.46-1.08,15.12-1.08,27.29Z"/></g></svg>